<!-- <svg xmlns="http://www.w3.org/2000/svg" viewBox="0 0 384 512">
<path d="M40.1 467.1l-11.2 9c-3.2 2.5-7.1 3.9-11.1 3.9C8 480 0 472 0 462.2L0 192C0 86 86 0 192 0S384 86 384 192l0 270.2c0 9.8-8 17.8-17.8 17.8c-4 0-7.9-1.4-11.1-3.9l-11.2-9c-13.4-10.7-32.8-9-44.1 3.9L269.3 506c-3.3 3.8-8.2 6-13.3 6s-9.9-2.2-13.3-6l-26.6-30.5c-12.7-14.6-35.4-14.6-48.2 0L141.3 506c-3.3 3.8-8.2 6-13.3 6s-9.9-2.2-13.3-6L84.2 471c-11.3-12.9-30.7-14.6-44.1-3.9zM160 192a32 32 0 1 0 -64 0 32 32 0 1 0 64 0zm96 32a32 32 0 1 0 0-64 32 32 0 1 0 0 64z"/>
</svg> -->

<svg xmlns="http://www.w3.org/2000/svg" viewBox="0 0 512 512">
<path d="M192 32c0 17.7 14.3 32 32 32c123.7 0 224 100.3 224 224c0 17.7 14.3 32 32 32s32-14.3 32-32C512 128.9 383.1 0 224 0c-17.7 0-32 14.3-32 32zm0 96c0 17.7 14.3 32 32 32c70.7 0 128 57.3 128 128c0 17.7 14.3 32 32 32s32-14.3 32-32c0-106-86-192-192-192c-17.7 0-32 14.3-32 32zM96 144c0-26.5-21.5-48-48-48S0 117.5 0 144L0 368c0 79.5 64.5 144 144 144s144-64.5 144-144s-64.5-144-144-144l-16 0 0 96 16 0c26.5 0 48 21.5 48 48s-21.5 48-48 48s-48-21.5-48-48l0-224z"/>
</svg>